<?xml version="1.0" encoding="utf-8"?>
<!-- Generator: Adobe Illustrator 18.0.0, SVG Export Plug-In . SVG Version: 6.00 Build 0)  -->
<!DOCTYPE svg PUBLIC "-//W3C//DTD SVG 1.1//EN" "http://www.w3.org/Graphics/SVG/1.1/DTD/svg11.dtd">
<svg version="1.1" id="Layer_1" xmlns="http://www.w3.org/2000/svg" xmlns:xlink="http://www.w3.org/1999/xlink" x="0px" y="0px"
	 viewBox="0 0 177.4 177.4" enable-background="new 0 0 177.4 177.4" xml:space="preserve">
<polygon fill="#95865C" points="43.6,141.7 66.9,128.2 92.9,173.3 100.1,169.2 97.5,167.8 71.2,122.2 43.6,138.1 "/>
<polygon fill="#95865C" points="101,19.1 87.6,42.4 42.5,16.4 38.4,23.6 41.3,23.5 86.9,49.8 102.8,22.3 "/>
<polygon fill="#95865C" points="76.5,157.1 89.9,133.8 135,159.8 139.1,152.6 136.2,152.7 90.6,126.4 74.7,153.9 "/>
<polygon fill="#95865C" points="64.9,22.3 64.9,49.2 12.9,49.2 12.9,57.4 15.4,55.9 68,55.9 68,24.1 "/>
<polygon fill="#95865C" points="112.6,154 112.6,127.1 164.6,127.1 164.6,118.8 162.1,120.3 109.5,120.3 109.5,152.1 "/>
<polygon fill="#95865C" points="35.2,43 48.6,66.3 3.6,92.3 7.7,99.4 9.1,96.9 54.7,70.5 38.8,43 "/>
<polygon fill="#95865C" points="142.3,133.2 128.9,109.9 173.9,83.9 169.8,76.8 168.4,79.3 122.8,105.7 138.7,133.2 "/>
<polygon fill="#95865C" points="19.8,75.8 43.1,89.3 17.1,134.3 24.2,138.4 24.2,135.5 50.5,89.9 22.9,74 "/>
<polygon fill="#95865C" points="157.7,100.4 134.4,86.9 160.4,41.9 153.3,37.8 153.3,40.7 127,86.3 154.6,102.2 "/>
<polygon fill="#95865C" points="22.9,112 49.8,112 49.8,164 58,164 56.5,161.5 56.5,108.8 24.7,108.8 "/>
<polygon fill="#FFFFFF" points="154.6,64.2 127.7,64.2 127.7,12.2 119.5,12.2 121,14.7 121,67.4 152.8,67.4 "/>
<polygon fill="#95865C" points="133.8,34.5 110.5,48 84.5,2.9 77.4,7.1 80,8.5 106.3,54 133.8,38.1 "/>
</svg>
