<?xml version="1.0" encoding="utf-8"?>
<!-- Generator: Adobe Illustrator 18.0.0, SVG Export Plug-In . SVG Version: 6.00 Build 0)  -->
<!DOCTYPE svg PUBLIC "-//W3C//DTD SVG 1.1//EN" "http://www.w3.org/Graphics/SVG/1.1/DTD/svg11.dtd">
<svg version="1.1" id="Layer_1" xmlns="http://www.w3.org/2000/svg" xmlns:xlink="http://www.w3.org/1999/xlink" x="0px" y="0px"
	 viewBox="0 0 511.9 203.4" enable-background="new 0 0 511.9 203.4" xml:space="preserve">
<g>
	<polygon fill="#95865C" points="178.7,190.8 178.7,163.3 174.1,163.3 174.1,174.9 160.5,174.9 160.5,163.3 155.9,163.3 
		155.9,190.8 160.5,190.8 160.5,179.1 174.1,179.1 174.1,190.8 	"/>
	<path fill="#95865C" d="M209.6,162.8c-8.2,0-14.4,6.1-14.4,14.3c0,8.1,6.2,14.2,14.4,14.2c8.2,0,14.4-6.1,14.4-14.3
		C223.9,168.9,217.7,162.8,209.6,162.8z M209.6,187.2c-5.5,0-9.6-4.3-9.6-10.1c0-5.7,4.1-10,9.6-10c5.5,0,9.6,4.3,9.6,10.1
		C219.1,182.8,215,187.2,209.6,187.2z"/>
	<polygon fill="#95865C" points="258,163.3 235.8,163.3 235.8,167.5 244.6,167.5 244.6,190.8 249.2,190.8 249.2,167.5 258,167.5 	
		"/>
	<polygon fill="#95865C" points="293.1,167.4 293.1,163.3 273.7,163.3 273.7,190.8 293.1,190.8 293.1,186.8 278.3,186.8 278.3,179 
		291.4,179 291.4,174.9 278.3,174.9 278.3,167.4 	"/>
	<polygon fill="#95865C" points="310.6,163.3 310.6,190.8 327.5,190.8 327.5,186.7 315.2,186.7 315.2,163.3 	"/>
	<path fill="#95865C" d="M357.4,183.5c0-4.4-2.7-7-8.8-8.5c-5.2-1.2-6.7-2-6.7-4.4c0-1.9,1.6-3.7,4.7-3.7c2.7,0,4.6,0.7,7,2.4
		l2.8-3.2c-2.8-2.2-5.8-3.2-9.7-3.2c-5.8,0-9.3,4-9.3,7.7c0,5.2,3.5,7,9.1,8.4c4.9,1.1,6.4,2.2,6.4,4.5c0,2.3-2,3.7-5.1,3.7
		c-3.3,0-5.3-0.7-8-3.1l-2.7,3.2c3.1,2.7,6.2,3.8,10.6,3.8C353.3,191.2,357.4,188,357.4,183.5z"/>
	<polygon fill="#FFFFFF" points="25.3,13.8 10,13.8 10,127.6 90.1,127.6 90.1,112.8 25.3,112.8 	"/>
	<polygon fill="#FFFFFF" points="503.3,28.6 503.3,13.8 427.9,13.8 427.9,127.6 503.3,127.6 503.3,112.8 443.2,112.8 443.2,78.1 
		498.9,78.1 498.9,63.3 443.2,63.3 443.2,28.6 	"/>
	<polygon fill="#FFFFFF" points="350,92.3 275.9,7.9 275.9,127.6 291.1,127.6 291.1,49.1 365.2,133.5 365.2,13.8 350,13.8 	"/>
	<path fill="#FFFFFF" d="M219.3,127.6h16.1L178.3,7.9l-57.2,119.7h16.1l11.5-24h59.2L219.3,127.6z M155.8,88.8l22.5-47.1l22.5,47.1
		H155.8z"/>
	<g>
		<path fill="#95865C" d="M103.3,21.6c0.2,0,0.3-0.1,0.4-0.1c0.2,0.1,0.3,0.3,0.2,0.4L91.2,47.9c3-4,9.4-12.2,15.7-12.2
			c4.8,0,2.7,4.9,2.5,5.5c-0.2,0.6-8,16.4-8.2,16.8c-0.2,0.4-1,2,0.3,2c2.1,0,5.6-2.6,5.6-2.6c-0.5,1.2-4.3,5.3-8.9,5.3
			c-0.8,0-1.3-0.2-1.7-0.7c-0.4-0.5-0.5-1.2-0.3-2.1c0.1-0.3,0.1-0.5,0.2-0.7c0.1-0.2,0.2-0.5,0.3-0.7c0,0,8.4-17.8,8.4-18
			c0.1-0.5,0-0.9-0.2-1.1c-0.2-0.3-0.6-0.4-1.1-0.4c-4.2,0-9.9,7.4-11.7,9.5c-1.2,1.5-2.2,3-3,4.3c-0.8,1.4-2.3,4.5-4.7,9.4l-4.4,0
			c0,0,17.5-35.7,17.6-35.9c0.1-0.2,0.1-0.3,0.1-0.5c0.2-0.8,0-1.3-0.5-1.5c-0.5-0.2-1.5-0.2-3-0.1C94.2,24,103.1,21.6,103.3,21.6z"
			/>
		<path fill="#95865C" d="M120.6,42.1c4.1-3.9,8-5.9,11.7-5.9c1.4,0,2.4,0.3,3.1,1c0.7,0.7,0.9,1.7,0.7,3c-0.4,2.7-2.3,5-5.6,7
			c-3.3,1.9-6.6,3.1-9.9,3.6l-1.5,0.2c-0.4,0.8-0.6,1.4-0.8,1.9c-0.2,0.5-0.3,1-0.4,1.7c-0.3,1.7-0.7,5.2,2.1,5.2
			c4.4,0,10.6-3.8,10.6-3.8c-1,1.1-5.5,6.4-11.6,6.4c-1.9,0-3.4-0.7-4.6-2.1c-1.2-1.4-1.6-3.4-1.1-6.1
			C114.1,50.1,116.5,46.1,120.6,42.1z M128.6,45.9c2.4-2,3.8-4,4.1-6c0.1-0.7,0.1-1.3-0.2-1.7c-0.2-0.4-0.7-0.6-1.3-0.6
			c-1.1,0-2.3,0.5-3.6,1.6c-1.3,1.1-2.4,2.2-3.5,3.6c-1.2,1.6-2.2,3-2.9,4.5c-0.4,0.8-1,1.8-1.5,2.8
			C123.1,49.4,126.1,47.9,128.6,45.9z"/>
		<path fill="#95865C" d="M46.5,58.4c4.2,4.1,9.4,3.7,11.3,3.5c6.8-1,12.9-13.5,18.4-26.3c7.3-16.9,16.4-17.8,16.4-17.8
			c-4.1,2.6-7.3,6.8-12.2,18.9c-4.9,12.2-10.8,27-24.4,27C47.2,63.6,46.5,58.4,46.5,58.4z"/>
		<path fill="#95865C" d="M73.9,21.8c0,0,1.8,2.8,0.7,6.2c-1.7,5.5-6.3,11.3-14.6,11.3c-7.8,0-7.5-7.1-7.3-8.3
			c0.7-7.2,8.8-19.7,33.2-19.7c4.4,0,27,2.3,34.6-2.1c0,0-3.9,7-30.6,5.9c-4.8-0.2-11.9-0.8-18.2,0.6C65.1,17,55,22.3,54.2,31.1
			c-0.2,1.7,0,6.8,5.7,6.8C69.4,37.9,73.4,26.6,73.9,21.8z"/>
	</g>
</g>
</svg>
